<svg width="124" height="25" viewBox="0 0 124 25" fill="none" xmlns="http://www.w3.org/2000/svg">
<path d="M1.30518 12C1.30518 5.64873 6.4539 0.5 12.8052 0.5H111.436C117.787 0.5 122.936 5.64873 122.936 12C122.936 18.3513 117.787 23.5 111.436 23.5H12.8052C6.45391 23.5 1.30518 18.3513 1.30518 12Z" fill="url(#paint0_linear_619_443)" stroke="#141C2E"/>
<g filter="url(#filter0_d_619_443)">
<path d="M100.1 16.9585C103.382 16.9585 106.043 14.2854 106.043 10.9879C106.043 7.69046 103.382 5.01733 100.1 5.01733C96.8183 5.01733 94.1577 7.69046 94.1577 10.9879C94.1577 14.2854 96.8183 16.9585 100.1 16.9585Z" fill="#FFD21E"/>
<path d="M106.043 10.9879C106.043 7.69046 103.382 5.01734 100.1 5.01734C96.8182 5.01734 94.1577 7.69046 94.1577 10.9879C94.1577 14.2854 96.8182 16.9585 100.1 16.9585C103.382 16.9585 106.043 14.2854 106.043 10.9879ZM93.4736 10.9879C93.4736 7.3109 96.4404 4.33008 100.1 4.33008C103.76 4.33008 106.727 7.3109 106.727 10.9879C106.727 14.665 103.76 17.6458 100.1 17.6458C96.4404 17.6458 93.4736 14.665 93.4736 10.9879Z" fill="#FF9D00"/>
<path d="M102.031 9.36277C102.249 9.44009 102.336 9.89024 102.556 9.77263C102.973 9.54989 103.131 9.02972 102.909 8.6108C102.688 8.19188 102.17 8.03285 101.753 8.25559C101.336 8.47834 101.178 8.99851 101.399 9.41743C101.504 9.61515 101.836 9.29366 102.031 9.36277Z" fill="#32343D"/>
<path d="M98.0022 9.36277C97.7842 9.44009 97.6975 9.89024 97.4774 9.77263C97.0604 9.54989 96.9021 9.02972 97.1238 8.6108C97.3455 8.19188 97.8633 8.03285 98.2802 8.25559C98.6972 8.47834 98.8554 8.99851 98.6337 9.41743C98.5291 9.61515 98.197 9.29366 98.0022 9.36277Z" fill="#32343D"/>
<path d="M100.058 13.4859C101.738 13.4859 102.281 11.9803 102.281 11.2072C102.281 10.8053 102.012 10.9318 101.581 11.146C101.183 11.3439 100.647 11.6168 100.058 11.6168C98.8298 11.6168 97.8345 10.434 97.8345 11.2072C97.8345 11.9803 98.3768 13.4859 100.058 13.4859Z" fill="#32343D"/>
<mask id="mask0_619_443" style="mask-type:alpha" maskUnits="userSpaceOnUse" x="97" y="10" width="6" height="4">
<path d="M100.058 13.4859C101.738 13.4859 102.281 11.9803 102.281 11.2072C102.281 10.8053 102.012 10.9318 101.581 11.146C101.183 11.3439 100.647 11.6168 100.058 11.6168C98.8298 11.6168 97.8345 10.434 97.8345 11.2072C97.8345 11.9803 98.3768 13.4859 100.058 13.4859Z" fill="white"/>
</mask>
<g mask="url(#mask0_619_443)">
<path d="M100.1 15.2403C100.919 15.2403 101.583 14.5731 101.583 13.7501C101.583 13.1091 101.18 12.5627 100.615 12.3523C100.594 12.3446 100.573 12.3373 100.552 12.3305C100.409 12.2847 100.257 12.7769 100.1 12.7769C99.9525 12.7769 99.8103 12.2816 99.676 12.3217C99.0634 12.505 98.6167 13.0751 98.6167 13.7501C98.6167 14.5731 99.2807 15.2403 100.1 15.2403Z" fill="#FF323D"/>
</g>
<g style="mix-blend-mode:multiply">
<path d="M104.119 10.1718C104.426 10.1718 104.675 9.92179 104.675 9.61339C104.675 9.305 104.426 9.05499 104.119 9.05499C103.812 9.05499 103.563 9.305 103.563 9.61339C103.563 9.92179 103.812 10.1718 104.119 10.1718Z" fill="#FFD21E"/>
</g>
<g style="mix-blend-mode:multiply">
<path d="M96.1666 10.1718C96.4736 10.1718 96.7224 9.92179 96.7224 9.61339C96.7224 9.305 96.4736 9.05499 96.1666 9.05499C95.8597 9.05499 95.6108 9.305 95.6108 9.61339C95.6108 9.92179 95.8597 10.1718 96.1666 10.1718Z" fill="#FFD21E"/>
</g>
<path d="M95.0229 12.0618C94.746 12.0618 94.4986 12.176 94.326 12.3832C94.2193 12.5116 94.1078 12.7184 94.0987 13.0282C93.9826 12.9947 93.871 12.976 93.7666 12.976C93.5016 12.976 93.2622 13.0781 93.0929 13.2634C92.8754 13.5014 92.7787 13.7938 92.8208 14.0864C92.8408 14.2258 92.8871 14.3507 92.9564 14.4663C92.8104 14.585 92.7028 14.7503 92.6508 14.9491C92.6101 15.105 92.5684 15.4295 92.7863 15.7639C92.7724 15.7857 92.7594 15.8084 92.7473 15.8316C92.6163 16.0814 92.6079 16.3637 92.7235 16.6266C92.8988 17.025 93.3343 17.3389 94.1801 17.6758C94.7063 17.8855 95.1877 18.0195 95.192 18.0207C95.8877 18.2019 96.5168 18.294 97.0614 18.294C98.0625 18.294 98.7792 17.986 99.1917 17.3784C99.8555 16.4001 99.7606 15.5053 98.9017 14.6428C98.4263 14.1655 98.1102 13.4617 98.0444 13.3073C97.9117 12.8499 97.5608 12.3415 96.9775 12.3415H96.9773C96.9282 12.3415 96.8786 12.3454 96.8297 12.3532C96.5742 12.3935 96.3509 12.5413 96.1914 12.7636C96.0192 12.5485 95.8519 12.3774 95.7006 12.2808C95.4724 12.1355 95.2445 12.0618 95.0229 12.0618ZM95.0229 12.749C95.1101 12.749 95.2166 12.7863 95.3341 12.8612C95.6989 13.0937 96.4027 14.3093 96.6604 14.7821C96.7468 14.9405 96.8944 15.0075 97.0272 15.0075C97.2909 15.0075 97.4968 14.7442 97.0514 14.4095C96.3815 13.9059 96.6165 13.0827 96.9363 13.032C96.9503 13.0298 96.9641 13.0287 96.9775 13.0287C97.2682 13.0287 97.3965 13.5322 97.3965 13.5322C97.3965 13.5322 97.7723 14.4806 98.4181 15.1288C99.0638 15.7773 99.0971 16.2977 98.6265 16.9912C98.3055 17.464 97.6911 17.6068 97.0614 17.6068C96.4084 17.6068 95.7389 17.4532 95.3637 17.3554C95.3452 17.3506 93.0635 16.703 93.3525 16.1518C93.401 16.0592 93.4811 16.0221 93.5818 16.0221C93.9888 16.0221 94.7291 16.6307 95.0473 16.6307C95.1185 16.6307 95.1686 16.6003 95.1891 16.526C95.3247 16.0372 93.1272 15.8317 93.3124 15.1237C93.3451 14.9984 93.4337 14.9476 93.5582 14.9478C94.096 14.9478 95.3026 15.8981 95.5556 15.8981C95.5749 15.8981 95.5887 15.8924 95.5963 15.8804C95.723 15.6749 95.6535 15.5314 94.7604 14.9883C93.8672 14.445 93.2403 14.1182 93.5968 13.7282C93.6379 13.6832 93.696 13.6633 93.7666 13.6633C94.3089 13.6634 95.5901 14.8349 95.5901 14.8349C95.5901 14.8349 95.9359 15.1962 96.145 15.1962C96.1931 15.1962 96.2339 15.1771 96.2616 15.13C96.4099 14.8789 94.8845 13.7174 94.7985 13.2382C94.7402 12.9135 94.8394 12.749 95.0229 12.749Z" fill="#FF9D00"/>
<path d="M98.6264 16.9912C99.097 16.2977 99.0637 15.7773 98.418 15.1288C97.7722 14.4806 97.3963 13.5322 97.3963 13.5322C97.3963 13.5322 97.256 12.9813 96.9362 13.032C96.6164 13.0827 96.3816 13.9059 97.0514 14.4095C97.7213 14.9129 96.918 15.255 96.6603 14.7821C96.4026 14.3093 95.6989 13.0937 95.334 12.8612C94.9692 12.6288 94.7124 12.759 94.7984 13.2382C94.8844 13.7174 96.41 14.8789 96.2615 15.1302C96.1131 15.3814 95.59 14.8349 95.59 14.8349C95.59 14.8349 93.9531 13.3382 93.5967 13.7282C93.2403 14.1182 93.8671 14.445 94.7603 14.9883C95.6536 15.5314 95.7229 15.6749 95.5962 15.8804C95.4693 16.0859 93.4975 14.4156 93.3123 15.1237C93.1273 15.8317 95.3246 16.0372 95.189 16.5261C95.0534 17.015 93.6412 15.6008 93.3524 16.1518C93.0634 16.703 95.3451 17.3506 95.3636 17.3554C96.1006 17.5475 97.9725 17.9545 98.6264 16.9912Z" fill="#FFD21E"/>
<path d="M105.263 12.0618C105.54 12.0618 105.787 12.176 105.96 12.3832C106.066 12.5116 106.178 12.7184 106.187 13.0282C106.303 12.9947 106.415 12.976 106.519 12.976C106.784 12.976 107.023 13.0781 107.193 13.2634C107.41 13.5014 107.507 13.7938 107.465 14.0864C107.445 14.2258 107.398 14.3507 107.329 14.4663C107.475 14.585 107.583 14.7503 107.635 14.9491C107.676 15.105 107.717 15.4295 107.499 15.7639C107.513 15.7857 107.526 15.8084 107.538 15.8316C107.669 16.0814 107.678 16.3637 107.562 16.6266C107.387 17.025 106.951 17.3389 106.106 17.6758C105.579 17.8855 105.098 18.0195 105.094 18.0207C104.398 18.2019 103.769 18.294 103.224 18.294C102.223 18.294 101.506 17.986 101.094 17.3784C100.43 16.4001 100.525 15.5053 101.384 14.6428C101.859 14.1655 102.175 13.4617 102.241 13.3073C102.374 12.8499 102.725 12.3415 103.308 12.3415H103.308C103.357 12.3415 103.407 12.3454 103.456 12.3532C103.711 12.3935 103.935 12.5413 104.094 12.7636C104.266 12.5485 104.434 12.3774 104.585 12.2808C104.813 12.1355 105.041 12.0618 105.263 12.0618ZM105.263 12.749C105.176 12.749 105.069 12.7863 104.952 12.8612C104.587 13.0937 103.883 14.3093 103.625 14.7821C103.539 14.9405 103.391 15.0075 103.258 15.0075C102.995 15.0075 102.789 14.7442 103.234 14.4095C103.904 13.9059 103.669 13.0827 103.349 13.032C103.335 13.0298 103.321 13.0287 103.308 13.0287C103.017 13.0287 102.889 13.5322 102.889 13.5322C102.889 13.5322 102.513 14.4806 101.868 15.1288C101.222 15.7773 101.189 16.2977 101.659 16.9912C101.98 17.464 102.595 17.6068 103.224 17.6068C103.877 17.6068 104.547 17.4532 104.922 17.3554C104.94 17.3506 107.222 16.703 106.933 16.1518C106.885 16.0592 106.805 16.0221 106.704 16.0221C106.297 16.0221 105.557 16.6307 105.238 16.6307C105.167 16.6307 105.117 16.6003 105.097 16.526C104.961 16.0372 107.158 15.8317 106.973 15.1237C106.941 14.9984 106.852 14.9476 106.727 14.9478C106.19 14.9478 104.983 15.8981 104.73 15.8981C104.711 15.8981 104.697 15.8924 104.689 15.8804C104.563 15.6749 104.632 15.5314 105.525 14.9883C106.418 14.445 107.045 14.1182 106.689 13.7282C106.648 13.6832 106.59 13.6633 106.519 13.6633C105.977 13.6634 104.696 14.8349 104.696 14.8349C104.696 14.8349 104.35 15.1962 104.141 15.1962C104.093 15.1962 104.052 15.1771 104.024 15.13C103.876 14.8789 105.401 13.7174 105.487 13.2382C105.545 12.9135 105.446 12.749 105.263 12.749Z" fill="#FF9D00"/>
<path d="M101.659 16.9912C101.188 16.2977 101.221 15.7773 101.867 15.1288C102.513 14.4806 102.889 13.5322 102.889 13.5322C102.889 13.5322 103.029 12.9813 103.349 13.032C103.669 13.0827 103.904 13.9059 103.234 14.4095C102.564 14.9129 103.367 15.255 103.625 14.7821C103.883 14.3093 104.586 13.0937 104.951 12.8612C105.316 12.6288 105.573 12.759 105.487 13.2382C105.401 13.7174 103.875 14.8789 104.024 15.1302C104.172 15.3814 104.695 14.8349 104.695 14.8349C104.695 14.8349 106.332 13.3382 106.688 13.7282C107.045 14.1182 106.418 14.445 105.525 14.9883C104.632 15.5314 104.562 15.6749 104.689 15.8804C104.816 16.0859 106.788 14.4156 106.973 15.1237C107.158 15.8317 104.961 16.0372 105.096 16.5261C105.232 17.015 106.644 15.6008 106.933 16.1518C107.222 16.703 104.94 17.3506 104.922 17.3554C104.185 17.5475 102.313 17.9545 101.659 16.9912Z" fill="#FFD21E"/>
</g>
<path d="M18.2358 16.5674V6.26846H20.9916C22.5664 6.26846 23.7947 6.69365 24.6765 7.54402C25.5584 8.39439 25.9993 9.66995 25.9993 11.3707C25.9993 13.0819 25.5637 14.3785 24.6923 15.2604C23.8209 16.1317 22.6189 16.5674 21.0861 16.5674H18.2358ZM20.0625 15.0871H20.8656C21.905 15.0871 22.7081 14.7879 23.275 14.1895C23.8419 13.5806 24.1254 12.641 24.1254 11.3707C24.1254 10.1109 23.8419 9.19227 23.275 8.61486C22.7081 8.03744 21.905 7.74874 20.8656 7.74874H20.0625V15.0871ZM29.7945 16.7564C29.1226 16.7564 28.5715 16.5464 28.141 16.1265C27.7211 15.7065 27.5111 15.1606 27.5111 14.4887C27.5111 13.6593 27.8733 13.0189 28.5977 12.5675C29.3221 12.1056 30.4769 11.7906 32.0622 11.6227C32.0517 11.2132 31.9415 10.8615 31.7315 10.5676C31.532 10.2631 31.1698 10.1109 30.6449 10.1109C30.267 10.1109 29.8943 10.1844 29.5268 10.3313C29.1699 10.4783 28.8182 10.6568 28.4717 10.8668L27.8103 9.6542C28.2408 9.38124 28.7237 9.14503 29.2591 8.94556C29.805 8.74609 30.3824 8.64635 30.9913 8.64635C31.9572 8.64635 32.6763 8.93506 33.1488 9.51247C33.6317 10.0794 33.8732 10.9035 33.8732 11.9849V16.5674H32.3771L32.2512 15.717H32.1882C31.8417 16.011 31.469 16.2577 31.0701 16.4572C30.6816 16.6566 30.2565 16.7564 29.7945 16.7564ZM30.3772 15.3391C30.6921 15.3391 30.9756 15.2656 31.2276 15.1186C31.49 14.9612 31.7682 14.7512 32.0622 14.4887V12.7565C31.0123 12.893 30.2827 13.0977 29.8733 13.3706C29.4638 13.6331 29.2591 13.9586 29.2591 14.347C29.2591 14.6934 29.3641 14.9454 29.5741 15.1029C29.784 15.2604 30.0517 15.3391 30.3772 15.3391ZM38.5187 16.7564C37.6264 16.7564 36.9912 16.4992 36.6133 15.9848C36.2458 15.4598 36.0621 14.7827 36.0621 13.9533V10.2684H34.9598V8.91406L36.1566 8.83532L36.377 6.72514H37.8888V8.83532H39.8573V10.2684H37.8888V13.9533C37.8888 14.8562 38.251 15.3076 38.9754 15.3076C39.1119 15.3076 39.2536 15.2919 39.4006 15.2604C39.5476 15.2184 39.6735 15.1764 39.7785 15.1344L40.0935 16.4729C39.8835 16.5464 39.642 16.6094 39.3691 16.6619C39.1066 16.7249 38.8232 16.7564 38.5187 16.7564ZM43.0201 16.7564C42.3482 16.7564 41.797 16.5464 41.3666 16.1265C40.9466 15.7065 40.7367 15.1606 40.7367 14.4887C40.7367 13.6593 41.0989 13.0189 41.8233 12.5675C42.5477 12.1056 43.7025 11.7906 45.2877 11.6227C45.2772 11.2132 45.167 10.8615 44.957 10.5676C44.7576 10.2631 44.3954 10.1109 43.8705 10.1109C43.4925 10.1109 43.1198 10.1844 42.7524 10.3313C42.3954 10.4783 42.0437 10.6568 41.6973 10.8668L41.0359 9.6542C41.4663 9.38124 41.9492 9.14503 42.4847 8.94556C43.0306 8.74609 43.608 8.64635 44.2169 8.64635C45.1828 8.64635 45.9019 8.93506 46.3743 9.51247C46.8573 10.0794 47.0987 10.9035 47.0987 11.9849V16.5674H45.6027L45.4767 15.717H45.4137C45.0673 16.011 44.6946 16.2577 44.2956 16.4572C43.9072 16.6566 43.482 16.7564 43.0201 16.7564ZM43.6027 15.3391C43.9177 15.3391 44.2012 15.2656 44.4531 15.1186C44.7156 14.9612 44.9938 14.7512 45.2877 14.4887V12.7565C44.2379 12.893 43.5083 13.0977 43.0988 13.3706C42.6894 13.6331 42.4847 13.9586 42.4847 14.347C42.4847 14.6934 42.5896 14.9454 42.7996 15.1029C43.0096 15.2604 43.2773 15.3391 43.6027 15.3391ZM51.4234 16.7564C50.8985 16.7564 50.3736 16.6566 49.8486 16.4572C49.3237 16.2472 48.8723 15.99 48.4944 15.6855L49.3447 14.5202C49.6912 14.7827 50.0376 14.9926 50.3841 15.1501C50.7305 15.3076 51.098 15.3863 51.4864 15.3863C51.9063 15.3863 52.216 15.2971 52.4155 15.1186C52.615 14.9402 52.7147 14.7197 52.7147 14.4572C52.7147 14.2368 52.6307 14.0583 52.4628 13.9218C52.3053 13.7748 52.1006 13.6489 51.8486 13.5439C51.5966 13.4284 51.3342 13.3182 51.0612 13.2132C50.7253 13.0872 50.3893 12.935 50.0534 12.7565C49.7279 12.5675 49.4602 12.3313 49.2502 12.0478C49.0403 11.7539 48.9353 11.3917 48.9353 10.9613C48.9353 10.2789 49.1872 9.72244 49.6912 9.29201C50.1951 8.86157 50.8775 8.64635 51.7384 8.64635C52.2843 8.64635 52.7725 8.74084 53.2029 8.92981C53.6333 9.11878 54.006 9.334 54.321 9.57546L53.4864 10.6778C53.2134 10.4783 52.9352 10.3209 52.6517 10.2054C52.3788 10.0794 52.0901 10.0164 51.7856 10.0164C51.3972 10.0164 51.1085 10.1004 50.9195 10.2684C50.7305 10.4258 50.636 10.6253 50.636 10.8668C50.636 11.1712 50.7935 11.4022 51.1085 11.5597C51.4234 11.7171 51.7909 11.8694 52.2108 12.0163C52.5677 12.1423 52.9142 12.2998 53.2501 12.4888C53.5861 12.6672 53.8643 12.9035 54.0848 13.1974C54.3157 13.4914 54.4312 13.8798 54.4312 14.3627C54.4312 15.0241 54.174 15.5911 53.6596 16.0635C53.1452 16.5254 52.3998 16.7564 51.4234 16.7564ZM59.3549 16.7564C58.641 16.7564 57.9954 16.5989 57.418 16.284C56.8406 15.9585 56.3839 15.4966 56.0479 14.8982C55.712 14.2893 55.544 13.5596 55.544 12.7092C55.544 11.8694 55.712 11.145 56.0479 10.5361C56.3944 9.92716 56.8406 9.45998 57.3865 9.13453C57.9324 8.80908 58.5046 8.64635 59.103 8.64635C59.8064 8.64635 60.3943 8.80383 60.8667 9.11878C61.3391 9.42324 61.6961 9.85367 61.9375 10.4101C62.179 10.956 62.2997 11.5912 62.2997 12.3156C62.2997 12.6935 62.2735 12.9875 62.221 13.1974H57.3077C57.3917 13.8798 57.6384 14.41 58.0479 14.7879C58.4573 15.1659 58.9717 15.3548 59.5911 15.3548C59.9271 15.3548 60.2368 15.3076 60.5203 15.2131C60.8142 15.1081 61.1029 14.9664 61.3864 14.7879L62.0005 15.9218C61.6331 16.1632 61.2237 16.3627 60.7722 16.5202C60.3208 16.6776 59.8484 16.7564 59.3549 16.7564ZM57.292 11.9691H60.725C60.725 11.3707 60.5937 10.9035 60.3313 10.5676C60.0688 10.2211 59.6751 10.0479 59.1502 10.0479C58.6988 10.0479 58.2946 10.2159 57.9376 10.5518C57.5912 10.8773 57.376 11.3497 57.292 11.9691ZM66.6 16.7564C65.7076 16.7564 65.0724 16.4992 64.6945 15.9848C64.327 15.4598 64.1433 14.7827 64.1433 13.9533V10.2684H63.041V8.91406L64.2378 8.83532L64.4583 6.72514H65.97V8.83532H67.9385V10.2684H65.97V13.9533C65.97 14.8562 66.3322 15.3076 67.0566 15.3076C67.1931 15.3076 67.3348 15.2919 67.4818 15.2604C67.6288 15.2184 67.7548 15.1764 67.8598 15.1344L68.1747 16.4729C67.9647 16.5464 67.7233 16.6094 67.4503 16.6619C67.1879 16.7249 66.9044 16.7564 66.6 16.7564ZM75.8363 16.7564C73.9623 16.7564 72.2931 15.2919 72.2931 12.7565C72.2931 10.1896 73.9623 8.72509 75.8363 8.72509C77.7103 8.72509 79.3795 10.1896 79.3795 12.7565C79.3795 15.2919 77.7103 16.7564 75.8363 16.7564ZM75.8363 15.6855C77.1591 15.6855 78.041 14.5045 78.041 12.7565C78.041 10.9928 77.1591 9.79593 75.8363 9.79593C74.5293 9.79593 73.6316 10.9928 73.6316 12.7565C73.6316 14.5045 74.5293 15.6855 75.8363 15.6855ZM81.3951 16.5674V8.91406H82.4659L82.5762 10.0164H82.6234C83.3478 9.29201 84.1352 8.72509 85.1903 8.72509C86.7965 8.72509 87.5209 9.76443 87.5209 11.7171V16.5674H86.2296V11.8904C86.2296 10.4573 85.7887 9.84317 84.7808 9.84317C83.9935 9.84317 83.458 10.2526 82.6864 11.0242V16.5674H81.3951Z" fill="#E6EAF2"/>
<defs>
<filter id="filter0_d_619_443" x="87.1942" y="0.157761" width="25.8973" height="24.812" filterUnits="userSpaceOnUse" color-interpolation-filters="sRGB">
<feFlood flood-opacity="0" result="BackgroundImageFix"/>
<feColorMatrix in="SourceAlpha" type="matrix" values="0 0 0 0 0 0 0 0 0 0 0 0 0 0 0 0 0 0 127 0" result="hardAlpha"/>
<feOffset dy="1.2517"/>
<feGaussianBlur stdDeviation="2.71201"/>
<feColorMatrix type="matrix" values="0 0 0 0 0 0 0 0 0 0 0 0 0 0 0 0 0 0 0.1 0"/>
<feBlend mode="normal" in2="BackgroundImageFix" result="effect1_dropShadow_619_443"/>
<feBlend mode="normal" in="SourceGraphic" in2="effect1_dropShadow_619_443" result="shape"/>
</filter>
<linearGradient id="paint0_linear_619_443" x1="0.805176" y1="12" x2="50.9791" y2="12" gradientUnits="userSpaceOnUse">
<stop stop-color="#172033"/>
<stop offset="1" stop-color="#0B0F19"/>
</linearGradient>
</defs>
</svg>
